<svg xmlns="http://www.w3.org/2000/svg" version="1.1" xmlns:xlink="http://www.w3.org/1999/xlink" xmlns:svgjs="http://svgjs.dev/svgjs" width="1445" height="500" preserveAspectRatio="none" viewBox="0 0 1445 500"><g mask="url(&quot;#SvgjsMask1300&quot;)" fill="none"><path d="M -832.1992423166023,257 C -735.8,234.8 -543,120.8 -350.19924231660235,146 C -157.4,171.2 -61,373.4 131.80075768339765,383 C 324.6,392.6 421,199.2 613.8007576833977,194 C 806.6,188.8 929.56,385.2 1095.8007576833977,357 C 1262.04,328.8 1375.16,113.8 1445,53" stroke="rgba(167, 170, 225, 0.63)" stroke-width="2"></path><path d="M -842.4080380981299,336 C -746.01,318 -553.21,249 -360.40803809812985,246 C -167.61,243 -71.21,357 121.59196190187015,321 C 314.39,285 410.79,40.2 603.5919619018701,66 C 796.39,91.8 917.31,417.6 1085.59196190187,450 C 1253.87,482.4 1373.12,272.4 1445,228" stroke="rgba(167, 170, 225, 0.63)" stroke-width="2"></path><path d="M -55.02943347392596,91 C 41.37,131.8 234.17,298.4 426.97056652607404,295 C 619.77,291.6 716.17,62.8 908.970566526074,74 C 1101.77,85.2 1198.17,352 1390.970566526074,351 C 1583.77,350 1862.16,77.6 1872.970566526074,69 C 1883.78,60.4 1530.59,260.2 1445,308" stroke="rgba(167, 170, 225, 0.63)" stroke-width="2"></path><path d="M -463.0749031576415,395 C -366.67,356.2 -173.87,216.6 18.925096842358535,201 C 211.73,185.4 308.13,330.2 500.9250968423585,317 C 693.73,303.8 790.13,130.2 982.9250968423586,135 C 1175.73,139.8 1372.51,327.6 1464.9250968423585,341 C 1557.34,354.4 1448.99,229.8 1445,202" stroke="rgba(167, 170, 225, 0.63)" stroke-width="2"></path><path d="M -339.6673064190134,177 C -243.27,222.6 -50.47,416.2 142.3326935809866,405 C 335.13,393.8 431.53,126.8 624.3326935809866,121 C 817.13,115.2 913.53,366.6 1106.3326935809866,376 C 1299.13,385.4 1520.6,192.6 1588.3326935809866,168 C 1656.07,143.4 1473.67,236 1445,253" stroke="rgba(167, 170, 225, 0.63)" stroke-width="2"></path></g><defs><mask id="SvgjsMask1300"><rect width="1445" height="500" fill="#ffffff"></rect></mask></defs></svg>